#!OML:ASF E:\acrobat2\Project_11_07_03\Capture day 1\Session 1\Acrobat.ASF
:FULLY-SPECIFIED
:DEGREES
206
root 10.2714 16.6907 32.4154 -179.448 -1.13997 181.085
lowerback -3.70745 0.318445 0.296088
upperback -3.59305 0.227628 -0.423259
thorax -1.60514 0.022725 -0.59258
lowerneck 0.111498 -1.50813 -0.972294
upperneck 5.38475 -2.27824 2.76638
head 1.70108 -1.16595 0.99246
rclavicle -2.83268e-015 2.78299e-015
rhumerus -46.5856 16.9602 -95.7007
rradius 26.5961
rwrist 6.01807
rhand -2.43773 -40.9828
rfingers 7.12502
rthumb 23.2535 -69.5988
lclavicle -2.83268e-015 2.78299e-015
lhumerus -40.1991 -23.2386 97.9165
lradius 21.0217
lwrist 9.83963
lhand -4.84546 -13.0157
lfingers 7.12502
lthumb 20.9419 15.8738
rfemur 15.2758 30.277 1.23584
rtibia -6.44573
rfoot -50.1191 -28.2674
rtoes 25.3979
lfemur 12.2766 -22.5581 5.16663
ltibia -7.44447
lfoot -43.6621 -9.68265
ltoes 55.9771
207
root 10.2717 16.6898 32.4116 -179.44 -1.11602 181.106
lowerback -3.7596 0.323785 0.310828
upperback -3.57521 0.235103 -0.411872
thorax -1.55752 0.0267122 -0.588843
lowerneck 0.10117 -1.4997 -0.988122
upperneck 5.35485 -2.26423 2.76826
head 1.69327 -1.15857 0.995921
rclavicle -6.01324e-015 1.03368e-014
rhumerus -46.5866 17.0048 -95.7029
rradius 26.6353
rwrist 5.98851
rhand -2.3912 -41.0521
rfingers 7.12502
rthumb 23.2981 -69.6624
lclavicle -6.01324e-015 1.03368e-014
lhumerus -40.1458 -23.2039 97.8921
lradius 21.0093
lwrist 9.82502
lhand -4.81574 -12.9823
lfingers 7.12502
lthumb 20.9704 15.904
rfemur 15.2353 30.2362 1.22414
rtibia -6.42278
rfoot -50.0602 -28.2229
rtoes 25.3854
lfemur 12.2627 -22.4345 5.23438
ltibia -7.4163
lfoot -43.378 -10.0342
ltoes 56.1106
208
root 10.272 16.6889 32.4075 -179.428 -1.07887 181.123
lowerback -3.81292 0.33057 0.315891
upperback -3.56136 0.24439 -0.394691
thorax -1.51341 0.0317103 -0.573683
lowerneck 0.0885488 -1.48927 -1.01724
upperneck 5.33274 -2.24737 2.76589
head 1.68843 -1.15005 1.00035
rclavicle 8.94531e-016 -3.97569e-015
rhumerus -46.5855 17.0587 -95.6997
rradius 26.6606
rwrist 5.97316
rhand -2.36866 -41.1196
rfingers 7.12502
rthumb 23.3198 -69.7271
lclavicle 8.94531e-016 -3.97569e-015
lhumerus -40.1165 -23.1907 97.8959
lradius 21.016
lwrist 9.85001
lhand -4.77345 -12.953
lfingers 7.12502
lthumb 21.0111 15.9289
rfemur 15.1749 30.2003 1.1948
rtibia -6.40204
rfoot -49.9891 -28.1724
rtoes 25.4083
lfemur 12.2524 -22.2982 5.29731
ltibia -7.38729
lfoot -43.0845 -10.4436
ltoes 56.3142
209
root 10.2723 16.6881 32.403 -179.407 -1.02893 181.135
lowerback -3.87136 0.335809 0.311059
upperback -3.5532 0.25131 -0.369526
thorax -1.47241 0.0355544 -0.544823
lowerneck 0.0564071 -1.4746 -1.05962
upperneck 5.34026 -2.22528 2.7545
head 1.69645 -1.13921 1.00418
rclavicle -9.93923e-016 3.97569e-015
rhumerus -46.5749 17.1292 -95.6932
rradius 26.6578
rwrist 5.96283
rhand -2.38488 -41.1725
rfingers 7.12502
rthumb 23.3042 -69.7821
lclavicle -9.93923e-016 3.97569e-015
lhumerus -40.1074 -23.1843 97.9213
lradius 21.0365
lwrist 9.89085
lhand -4.72916 -12.9462
lfingers 7.12502
lthumb 21.0536 15.931
rfemur 15.0872 30.1607 1.1417
rtibia -6.38581
rfoot -49.8799 -28.1428
rtoes 25.4022
lfemur 12.2413 -22.1597 5.35542
ltibia -7.35844
lfoot -42.837 -10.8254
ltoes 56.4896
210
root 10.2727 16.6872 32.3981 -179.378 -0.970858 181.141
lowerback -3.93639 0.338197 0.295413
upperback -3.5453 0.254539 -0.340003
thorax -1.42814 0.0377477 -0.505498
lowerneck -0.00751302 -1.45593 -1.1112
upperneck 5.37886 -2.1982 2.7368
head 1.71994 -1.12587 1.00754
rclavicle -1.88845e-015 1.43125e-014
rhumerus -46.5517 17.2201 -95.6895
rradius 26.6359
rwrist 5.94708
rhand -2.43073 -41.2219
rfingers 7.12502
rthumb 23.2602 -69.837
lclavicle -1.88845e-015 1.43125e-014
lhumerus -40.1017 -23.1781 97.9559
lradius 21.06
lwrist 9.92497
lhand -4.70603 -12.9702
lfingers 7.12502
lthumb 21.0758 15.9044
rfemur 14.9763 30.0948 1.05636
rtibia -6.37107
rfoot -49.7056 -28.1273
rtoes 25.3517
lfemur 12.232 -22.0254 5.40262
ltibia -7.33332
lfoot -42.6622 -11.1073
ltoes 56.571
211
root 10.2732 16.6864 32.3929 -179.345 -0.908628 181.14
lowerback -4.00617 0.3386 0.270902
upperback -3.53712 0.255261 -0.308997
thorax -1.38103 0.0388316 -0.459735
lowerneck -0.0972075 -1.43612 -1.16694
upperneck 5.44097 -2.16997 2.71635
head 1.75554 -1.11192 1.01068
rclavicle -3.97569e-016 -4.17448e-015
rhumerus -46.5168 17.3222 -95.6869
rradius 26.6001
rwrist 5.92456
rhand -2.49207 -41.2395
rfingers 7.12502
rthumb 23.2014 -69.8621
lclavicle -3.97569e-016 -4.17448e-015
lhumerus -40.091 -23.1684 97.9915
lradius 21.0786
lwrist 9.94397
lhand -4.72975 -13.0171
lfingers 7.12502
lthumb 21.053 15.8601
rfemur 14.8463 29.9894 0.940484
rtibia -6.34998
rfoot -49.4603 -28.1057
rtoes 25.2701
lfemur 12.2289 -21.9078 5.43569
ltibia -7.31844
lfoot -42.5763 -11.2568
ltoes 56.5159
